# xmcd
#
# Track frame offsets:
#	150
#	22762
#	45277
#	69050
#	90340
#	112647
#	129445
#	152305
#	172962
#	195647
#	219492
#	238600
#	258905
#	286055
#	312297
#
# Disc length: 4581 seconds
#
# Revision: 2
# Processed by: cddbd v1.5.2PL0 Copyright (c) Steve Scherf et al.
# Submitted via: audiograbber 1.82.02
#
DISCID=a511e30f
DTITLE=Stevie B - The Best Of Stevie B
DYEAR=1990
DGENRE=R&B
TTITLE0=Because I Love You (The Postman Song)
TTITLE1=Dreamin' Of Love (Bonus "Extended" Mix)
TTITLE2=In My Eyes
TTITLE3=Girl I am Searching For You
TTITLE4=I'll Be By Your Side
TTITLE5=Love And Emotion
TTITLE6=Spring Love
TTITLE7=Broken Hearted
TTITLE8=I Wanna Be The One
TTITLE9=Love Me For Life
TTITLE10=Forever More
TTITLE11=Party Your Body
TTITLE12=In My Eyes (In My House Mix)
TTITLE13=Girl I am Searching For You (Bonus Mix)
TTITLE14=I Wanna Be The One (Bonus Mix)
EXTD=
EXTT0=
EXTT1=
EXTT2=
EXTT3=
EXTT4=
EXTT5=
EXTT6=
EXTT7=
EXTT8=
EXTT9=
EXTT10=
EXTT11=
EXTT12=
EXTT13=
EXTT14=
PLAYORDER=
